# xmcd
#
# Track frame offsets:
# 182
# 12332
# 22732
# 36882
# 54082
# 66245
# 85757
# 98457
# 113570
# 128045
# 144245
# 156845
# 168132
# 183407
# 199407
# 213332
#
# Disc length: 3026 seconds
#
#
# Revision: 0
# Processed by: cddbd v1.5.1PL2 Copyright (c) Steve Scherf et al.
# Submitted via: FreeRIP 2.943 
#
DISCID=c20bd010
DTITLE=verschiedene Künstler - Trucker Hit Power
DYEAR=1900
DGENRE=Country
TTITLE0=Tom Astor and Claudia Jung - Wer Liebe sucht
TTITLE1=Jonny Hill - Rauch in den Haaren
TTITLE2=Gudrun Lange and Kactus - Hey, du da im Spiegel
TTITLE3=Gunter Gabriel - Du bist das Gold in meinem Leben
TTITLE4=Tom Astor and Bobby Bare - 500 Meilen von zu Haus
TTITLE5=Rugy and Howard - Mich wirst Du einfach nicht mehr los
TTITLE6=Mark Sunny - Holt den Schampus raus
TTITLE7=Tom Astor - Es sind nicht nur alte Stiefel
TTITLE8=Tom Astor - Ein Brief aus Kalifornien
TTITLE9=Nashville Music Company - Tanz auf dem Vulkan
TTITLE10=Tom Astor - Spar Dir Dein Lächeln nicht für morgen auf
TTITLE11=D'R Drüjje Pitter - Ah ah - ei ei ei
TTITLE12=Rugy and Howard - Männer wie aus Stahl
TTITLE13=Mark Sunny - Ich geh meinen Weg
TTITLE14=Tom Astor - Du bist da wenn's drum geht
TTITLE15=Nashville Music Company - Engel in der Nacht
EXTD=CD 2 von 2
EXTT0=
EXTT1=
EXTT2=
EXTT3=
EXTT4=
EXTT5=
EXTT6=
EXTT7=
EXTT8=
EXTT9=
EXTT10=
EXTT11=
EXTT12=
EXTT13=
EXTT14=
EXTT15=
PLAYORDER=
